<svg id="Layer_1" data-name="Layer 1" xmlns="http://www.w3.org/2000/svg" viewBox="0 0 864.23 573.6"><defs><style>.cls-1{fill:#010101;}.cls-2{fill:#336498;}.cls-3{fill:#ed2024;}.cls-4{fill:#1d2859;}.cls-4,.cls-5,.cls-6{fill-rule:evenodd;}.cls-5{fill:#1d7abf;}.cls-6{fill:#39bcaa;}.cls-7{fill:#1e94d2;}.cls-8{fill:#ffca5a;}.cls-9{fill:#f99c1c;}.cls-10{fill:#231f20;}</style></defs><text x="-571.46" y="-165.73"/><path class="cls-1" d="M1111.53,305.06c-13.3-14.71-80.21-4.23-149.44,23.4s-114.57,62-101.26,76.66,80.2,4.23,149.44-23.4S1124.84,319.77,1111.53,305.06ZM898.21,390.14c-11-12.15,19.06-37.55,67.13-56.74s95.94-24.88,106.94-12.73-19.07,37.55-67.14,56.74S909.2,402.29,898.21,390.14Z" transform="translate(-571.46 -165.73)"/><path class="cls-2" d="M1010.27,328.46c-69.24-27.63-136.14-38.11-149.44-23.4s32,49,101.26,76.66,136.14,38.11,149.44,23.4S1079.5,356.09,1010.27,328.46Zm-5.13,4.32c48.07,19.18,78.12,44.58,67.14,56.73S1013.4,396,965.34,376.78,887.22,332.19,898.21,320,957.07,313.59,1005.14,332.78Z" transform="translate(-571.46 -165.73)"/><path class="cls-3" d="M986.18,258c-25.83,0-46.77,43.49-46.77,97.14s20.94,97.14,46.77,97.14S1033,408.74,1033,355.09,1012,258,986.18,258Zm-.08,165.28c-21.34,0-38.64-30.2-38.64-67.45s17.3-67.44,38.64-67.44,38.64,30.19,38.64,67.44S1007.44,423.23,986.1,423.23Z" transform="translate(-571.46 -165.73)"/><path class="cls-3" d="M1012.26,355.45c0,9.17-11.19,16.6-25,16.6s-25-7.43-25-16.6,11.19-16.6,25-16.6S1012.26,346.28,1012.26,355.45Z" transform="translate(-571.46 -165.73)"/><path class="cls-4" d="M749.33,260.11a225.52,225.52,0,0,1-41.25,7.66v309c78.13-5,233.52-85.79,271.58-41.51-36.78-48.37-148-87.71-230.33-88.82Z" transform="translate(-571.46 -165.73)"/><path class="cls-5" d="M749.33,206.14c-25.91,3.72-51.36,6.71-75.13,6.71v309c82.14,1.25,262.89-36,304.87,12.63-37.42-48-147.83-86.93-229.74-88Z" transform="translate(-571.46 -165.73)"/><path class="cls-6" d="M983,231c-66.57-64.32-154.8-65.35-261.39-65.24v309c76.72,1.18,200.92,7.08,248.69,49.92-43.76-43.36-144.7-77.18-221-78.21V178c51.72-2.58,153.12-1.47,233.66,53Z" transform="translate(-571.46 -165.73)"/><path class="cls-4" d="M1215.72,446.46c-82.36,1.11-193.55,40.45-230.34,88.82,38.07-44.28,193.46,36.5,271.59,41.51v-309a225.52,225.52,0,0,1-41.25-7.66Z" transform="translate(-571.46 -165.73)"/><path class="cls-5" d="M1215.72,446.46c-81.91,1.11-192.32,40-229.74,88,42-48.62,222.73-11.38,304.87-12.63v-309c-23.77,0-49.22-3-75.13-6.71Z" transform="translate(-571.46 -165.73)"/><path class="cls-6" d="M982.06,231c66.57-64.32,154.8-65.35,261.39-65.24v309c-76.72,1.18-200.92,7.08-248.69,49.92,43.76-43.36,144.7-77.18,221-78.21V178c-51.72-2.58-153.12-1.47-233.66,53Z" transform="translate(-571.46 -165.73)"/><path class="cls-7" d="M901.33,231.8" transform="translate(-571.46 -165.73)"/><path class="cls-8" d="M710.22,576.79S618.5,600,571.46,650.51l38.94,31.21,3.92,43.83s39.19-31.88,74.47-35.86Z" transform="translate(-571.46 -165.73)"/><path class="cls-9" d="M628.56,661.7s25.21-63.66,81.66-84.91v90.32Z" transform="translate(-571.46 -165.73)"/><path class="cls-8" d="M1255.83,576.79s91.72,23.24,138.75,73.72l-38.93,31.21-3.92,43.83s-39.2-31.88-74.47-35.86Z" transform="translate(-571.46 -165.73)"/><path class="cls-9" d="M1337.48,661.7s-25.21-63.66-81.65-84.91v90.32Z" transform="translate(-571.46 -165.73)"/><path class="cls-8" d="M1337.48,661.7c-220.73-102.8-488.19-102.8-708.92,0q25.2,38.81,50.38,77.63c189.36-88.19,418.81-88.19,608.16,0Z" transform="translate(-571.46 -165.73)"/><text x="-571.46" y="-165.73"/><text x="-571.46" y="-165.73"/><path class="cls-10" d="M818.67,619.07q2-1.34,4.27-2.74l4-2.5a1.32,1.32,0,0,1,.53-.17,3.38,3.38,0,0,1,.94.24c1.17.43,2.5.94,4,1.53l4.2,1.67q1.95-1.23,4-2.53t3.69-2.32a1.24,1.24,0,0,1,.54-.17,3.38,3.38,0,0,1,.94.24c1.16.42,2.5.92,4,1.5s2.9,1.11,4.2,1.63a5.13,5.13,0,0,0,.6.28c.18.07.27.15.27.25s-.14.2-.4.38l-8.13,5.14a3.13,3.13,0,0,1-.37.23.91.91,0,0,1-.37.12,2.86,2.86,0,0,1-.81-.18c-1.25-.44-2.63-1-4.13-1.56s-2.9-1.2-4.19-1.81l-7.59,4.78a2.71,2.71,0,0,1-.37.23.91.91,0,0,1-.37.12,3.14,3.14,0,0,1-.81-.17c-1.25-.45-2.63-1-4.13-1.6s-2.9-1.24-4.2-1.85c-.44-.19-.67-.33-.67-.42s.05-.1.14-.16Zm7.46,32.38a8.53,8.53,0,0,1,.3-2.14,11.92,11.92,0,0,1,.87-2.32,23.11,23.11,0,0,1,1.28-2.27,15.85,15.85,0,0,1,1.51-2,.55.55,0,0,0-.3-.3c-.16-.08-.31-.17-.47-.27a2.3,2.3,0,0,1-.44-.33.78.78,0,0,1-.2-.58,6.35,6.35,0,0,1,.17-1.09c.11-.52.27-1.1.47-1.76s.44-1.33.71-2,.53-1.35.8-2a14.3,14.3,0,0,1,.77-1.49c.25-.4.48-.62.71-.67a10.17,10.17,0,0,1,1.38-.21c.33,0,.74,0,1.24,0a26.19,26.19,0,0,1,9,1.39,13.31,13.31,0,0,1,5.77,3.82,8.07,8.07,0,0,1,.51,1c.15.37.3.75.43,1.14a7.57,7.57,0,0,1,.31,1.12,6.26,6.26,0,0,1,.1,1,5.66,5.66,0,0,1-.41,2,11.62,11.62,0,0,1-1,2.09c-.42.69-.88,1.37-1.37,2s-1,1.26-1.41,1.8a21.74,21.74,0,0,1-2.29,2.37,17.9,17.9,0,0,1-3.12,2.23,18.34,18.34,0,0,1-4,1.67,17.09,17.09,0,0,1-4.9.65,8.11,8.11,0,0,1-3-.49,5.91,5.91,0,0,1-2-1.21,4.44,4.44,0,0,1-1.07-1.57A4.17,4.17,0,0,1,826.13,651.45ZM845,646.6a2.63,2.63,0,0,0-1-1.92,10,10,0,0,0-2.62-1.63,17.86,17.86,0,0,0-3.49-1.13,17.41,17.41,0,0,0-3.73-.42c-.27,0-.63.33-1.07,1a16.57,16.57,0,0,0-1.28,2.23c-.4.83-.75,1.63-1,2.39a6,6,0,0,0-.44,1.46,1.89,1.89,0,0,0,.91,1.56,6.84,6.84,0,0,0,3.66.65,13.4,13.4,0,0,0,3.06-.4,22,22,0,0,0,3.25-1,13.84,13.84,0,0,0,2.62-1.37A2.6,2.6,0,0,0,845,646.6Z" transform="translate(-571.46 -165.73)"/><path class="cls-10" d="M876.9,648.25a51.54,51.54,0,0,0-6.68,3.18q-2.72,1.61-5.37,3.43t-5.74,4q-3.09,2.16-7.79,4.87c-1.44.82-3.07,1.66-4.91,2.53s-3.62,1.62-5.37,2.25l-1.18.28a7.3,7.3,0,0,1-1.64.21c-.54,0-.81-.11-.81-.35a1.22,1.22,0,0,1,.37-.79,3.63,3.63,0,0,1,.84-.68q2.22-1.3,4.43-2.52l4.44-2.44c1.48-.82,2.94-1.67,4.4-2.55s2.9-1.82,4.33-2.83c.4-.28,1.1-.81,2.08-1.58s2.06-1.65,3.22-2.62,2.34-2,3.53-2.92,2.18-1.79,3-2.44Zm-18.6-17.33c1.34-.89,2.77-1.81,4.27-2.74l4-2.5a1.21,1.21,0,0,1,.54-.17,3.38,3.38,0,0,1,.94.24c1.16.42,2.44.9,3.83,1.44l4,1.58a5.34,5.34,0,0,0,.6.29q.27.11.27.24c0,.07-.13.2-.4.39l-8.13,5.13a2.2,2.2,0,0,1-.37.23.91.91,0,0,1-.37.12,3,3,0,0,1-.8-.17c-1.26-.45-2.6-1-4-1.55s-2.8-1.18-4.1-1.79c-.45-.19-.67-.33-.67-.42s0-.1.13-.16Z" transform="translate(-571.46 -165.73)"/><path class="cls-10" d="M881,622.62q2-1.33,4.27-2.74l4-2.5a1.4,1.4,0,0,1,.54-.17,3.38,3.38,0,0,1,.94.24c1.16.43,2.44.91,3.83,1.45s2.73,1.06,4,1.58a5.13,5.13,0,0,0,.6.28c.18.07.27.15.27.25s-.13.19-.4.38l-8.13,5.13a1.7,1.7,0,0,1-.37.23.78.78,0,0,1-.37.13,2.88,2.88,0,0,1-.8-.18c-1.26-.44-2.6-1-4-1.55s-2.8-1.18-4.1-1.79c-.45-.19-.67-.33-.67-.42s0-.1.13-.16Z" transform="translate(-571.46 -165.73)"/><path class="cls-10" d="M906.73,634.75a2,2,0,0,1-1.18,1.79,7.16,7.16,0,0,1-3.39.64l-7.79-1a7.46,7.46,0,0,0-2.35.38,13.44,13.44,0,0,0-2.15.94,11,11,0,0,0-1.78,1.17,11.22,11.22,0,0,0-1.24,1.16,4,4,0,0,0,1.67,1.62,14.54,14.54,0,0,0,3,1.35,26.93,26.93,0,0,0,3.56.94,19,19,0,0,0,3.46.35,9.94,9.94,0,0,0,3.7-.86,37.8,37.8,0,0,0,4-2q1.92-1.1,3.36-2c1-.64,1.53-1,1.71-1.16a6.21,6.21,0,0,1,.84-.5,2.57,2.57,0,0,1,1.11-.24.62.62,0,0,1,.5.19.63.63,0,0,1,.17.44,1,1,0,0,1-.2.63c-.49.5-1,1-1.51,1.44s-1,.94-1.58,1.41q-3.15,2.82-6.41,5.52a45.41,45.41,0,0,1-7.16,4.85,39.33,39.33,0,0,1-8.66,3.45,41.77,41.77,0,0,1-10.88,1.3,32.41,32.41,0,0,1-4-.25,30.86,30.86,0,0,1-4-.74,12.41,12.41,0,0,1-6.22-3.11,7.68,7.68,0,0,1-2.18-4.83l7.12-3.59c.36.61.73,1.17,1.11,1.69a6.66,6.66,0,0,0,1.31,1.34,9.5,9.5,0,0,0,2.69,1.16,15.44,15.44,0,0,0,7,.28,5.39,5.39,0,0,1-1.72-1.27,2.39,2.39,0,0,1-.63-1.58,1.21,1.21,0,0,1,.06-.49,18.19,18.19,0,0,1,2.22-2.39c.85-.78,1.66-1.53,2.42-2.25,1-1,2-1.91,3-2.78s2-1.75,3.16-2.64a16.06,16.06,0,0,1,2-1.3,16.52,16.52,0,0,1,2.51-1.11,23.05,23.05,0,0,1,2.89-.77,16.37,16.37,0,0,1,3.19-.3,15.67,15.67,0,0,1,2.55.21,11.53,11.53,0,0,1,2.32.62,5.91,5.91,0,0,1,1.71,1A1.73,1.73,0,0,1,906.73,634.75Z" transform="translate(-571.46 -165.73)"/><path class="cls-10" d="M938.63,640.1c1.34-.9,2.76-1.81,4.26-2.75l4-2.49a1.21,1.21,0,0,1,.54-.18,3.23,3.23,0,0,1,.94.25q1.74.63,4,1.53l4.2,1.67c1.3-.82,2.62-1.67,4-2.53s2.58-1.65,3.7-2.33a1.32,1.32,0,0,1,.53-.17,3.09,3.09,0,0,1,.94.25c1.17.42,2.5.91,4,1.49s2.9,1.12,4.2,1.63c.22.12.42.21.6.29s.27.15.27.24-.13.2-.4.39l-8.13,5.13a2.2,2.2,0,0,1-.37.23.91.91,0,0,1-.37.12,3,3,0,0,1-.8-.17c-1.26-.45-2.63-1-4.13-1.57s-2.9-1.2-4.2-1.81l-7.59,4.78a2.2,2.2,0,0,1-.37.23.91.91,0,0,1-.37.12,2.76,2.76,0,0,1-.81-.17c-1.25-.45-2.63-1-4.13-1.6s-2.9-1.24-4.19-1.85c-.45-.18-.68-.32-.68-.42s0-.1.14-.16A1.82,1.82,0,0,1,938.63,640.1ZM983,654.47l-1.44.13c-.47,0-1,0-1.45,0-1.16,0-2.44,0-3.82-.14l-4.27-.3c-1.45-.11-2.91-.2-4.36-.3s-2.82-.14-4.07-.14a15,15,0,0,0-4.33.62q-2.06.61-3.93,1.38A33.58,33.58,0,0,0,951,658c-1.36.83-2.61,1.62-3.73,2.37a2.31,2.31,0,0,1-1.41.67c-.36,0-.53-.2-.53-.6a2.07,2.07,0,0,1,.4-1.05q1.41-1.83,3.16-3.7a29.77,29.77,0,0,1,4.09-3.58,33.09,33.09,0,0,1,4.1-2.55,30.1,30.1,0,0,1,4.77-2,36.18,36.18,0,0,1,5.47-1.32,38.38,38.38,0,0,1,6.21-.47H975l1.85.06,1.85.08,1.47.09,2.89.32Z" transform="translate(-571.46 -165.73)"/><path class="cls-10" d="M971.27,666.64c1.34-.89,2.76-1.81,4.26-2.74l4-2.5a1.25,1.25,0,0,1,.54-.18,3.52,3.52,0,0,1,.94.25q1.74.63,4,1.53l4.2,1.67q1.95-1.23,4-2.53t3.7-2.32a1.21,1.21,0,0,1,.54-.18,3.23,3.23,0,0,1,.94.25c1.16.42,2.49.92,4,1.49s2.9,1.12,4.2,1.64l.6.28q.27.11.27.24c0,.07-.13.2-.4.39l-8.13,5.13a2.2,2.2,0,0,1-.37.23.93.93,0,0,1-.36.13,2.86,2.86,0,0,1-.81-.18c-1.26-.45-2.63-1-4.13-1.56s-2.9-1.21-4.2-1.82l-7.59,4.79a2.25,2.25,0,0,1-.37.22.78.78,0,0,1-.37.13,2.81,2.81,0,0,1-.8-.18c-1.26-.44-2.63-1-4.13-1.6s-2.9-1.23-4.2-1.84c-.45-.19-.67-.33-.67-.43s0-.1.13-.15A1.91,1.91,0,0,1,971.27,666.64Z" transform="translate(-571.46 -165.73)"/><path class="cls-10" d="M980.54,643.89a6.46,6.46,0,0,0,3.05,3.45c1.5.84,3.78,1.26,6.82,1.26a37.58,37.58,0,0,0,6.78-.61,23.42,23.42,0,0,0,5.85-1.81c1.12-.54,2.15-1.1,3.09-1.67a14.3,14.3,0,0,1,3.42-1.46,9.75,9.75,0,0,1-.07,1c0,.44-.1.91-.16,1.4s-.13,1-.17,1.45a10.52,10.52,0,0,0-.07,1.09,47.37,47.37,0,0,1-4.13,2.9,38.71,38.71,0,0,1-5.1,2.67,35.87,35.87,0,0,1-6,2,30.21,30.21,0,0,1-6.85.75,19.6,19.6,0,0,1-5.88-.79,14.61,14.61,0,0,1-4.23-2,8.87,8.87,0,0,1-2.59-2.81,6.35,6.35,0,0,1-.87-3.11Z" transform="translate(-571.46 -165.73)"/><path class="cls-10" d="M1008.81,643.08a6.08,6.08,0,0,0,1.21,1.85,7.78,7.78,0,0,0,2,1.51,11.35,11.35,0,0,0,2.82,1,16,16,0,0,0,3.62.37h.68a5.12,5.12,0,0,0,.67,0l4.36-7.91a.75.75,0,0,1,.68-.31,2.69,2.69,0,0,1,.87.16c.31.1.58.2.8.29a10,10,0,0,1,1.89,1.06,8,8,0,0,1,1.47,1.35,6,6,0,0,1,.94,1.48,3.42,3.42,0,0,1,.34,1.42A7.21,7.21,0,0,1,1030,649a12.81,12.81,0,0,1-3.29,3.55,18.77,18.77,0,0,1-5.21,2.69,20.9,20.9,0,0,1-6.82,1,16.87,16.87,0,0,1-4.33-.51,13.87,13.87,0,0,1-3.36-1.35,10.67,10.67,0,0,1-2.45-1.93,12.33,12.33,0,0,1-1.68-2.29,6.35,6.35,0,0,1-1-3.27v-.28Z" transform="translate(-571.46 -165.73)"/><path class="cls-10" d="M1067,642.24a9.21,9.21,0,0,1-1.17,4.22,24.27,24.27,0,0,1-2.89,4.29,25.18,25.18,0,0,1-3.66,3.58,13.57,13.57,0,0,1-3.42,2.11,15.71,15.71,0,0,1-1.85.48l-3.23.67-4,.75c-1.44.26-2.79.49-4.07.7s-2.42.39-3.45.51a20.56,20.56,0,0,1-2.22.2q-.54,0-.54-.21c0-.12.24-.32.71-.6s1.07-.6,1.81-1,1.53-.72,2.38-1.09,1.66-.72,2.42-1l2-.82c.56-.24.89-.38,1-.43l1.61-.7,2.55-1.09c.94-.4,1.92-.81,2.92-1.25s1.92-.83,2.72-1.21,1.48-.7,2-1,.8-.44.8-.51a3.73,3.73,0,0,0-1.61-2.84,16.44,16.44,0,0,0-3.93-2.36,28.41,28.41,0,0,0-4.87-1.63,23.14,23.14,0,0,0-4.36-.69s-.07-.09-.07-.21a4.08,4.08,0,0,1,.27-1.07c.18-.53.41-1.13.71-1.8s.62-1.37,1-2.1a22.23,22.23,0,0,1,1.18-2,9,9,0,0,1,1.21-1.51,1.66,1.66,0,0,1,1.07-.6,13.12,13.12,0,0,1,1.92.29c1,.18,2.08.46,3.35.82a37.09,37.09,0,0,1,4,1.39,23.36,23.36,0,0,1,3.79,2,11,11,0,0,1,2.86,2.57A5.1,5.1,0,0,1,1067,642.24Z" transform="translate(-571.46 -165.73)"/><path class="cls-10" d="M1076.92,648.74c-.14-.51-.25-1-.34-1.49a7.73,7.73,0,0,1-.13-1.42v-.62c0-.29,0-.74.06-1.34s.13-1.4.24-2.4.24-2.3.4-3.87.36-3.45.61-5.64.54-4.79.9-7.79c0-.31.1-.62.17-.93a2.09,2.09,0,0,1,.37-.83l4.43-5.83a7.25,7.25,0,0,1,.54-.64,1.1,1.1,0,0,1,.81-.28.48.48,0,0,1,.4.18,2,2,0,0,1,.13,1c0,.52,0,1.27-.13,2.27s-.23,2.36-.4,4.09-.42,3.91-.71,6.51-.64,5.76-1,9.49a20.53,20.53,0,0,0,.2,2.67,12.44,12.44,0,0,0,.74,2.85Z" transform="translate(-571.46 -165.73)"/><path class="cls-10" d="M1076.78,643.22q2.68-3,4.47-4.92c1.19-1.29,2.18-2.32,3-3.11s1.46-1.39,2-1.81a10.8,10.8,0,0,1,1.44-1q3.49-2,6.69-3.78c2.12-1.16,4.23-2.28,6.31-3.36s4.2-2.13,6.35-3.18,4.43-2.12,6.85-3.25q7.73-3.62,15.51-7t15.72-6.87c.13-.07.38-.19.74-.35s.74-.33,1.14-.48.8-.29,1.21-.42a3.21,3.21,0,0,1,.94-.19.53.53,0,0,1,.2,0,.14.14,0,0,1,.07.11c0,.07-.14.21-.41.42s-.79.58-1.58,1.11l-3.35,2.21-5.75,3.78-28.41,15.22-7,3c-1.68.73-2.92,1.29-3.72,1.67l-1.52.7c-.2.09-.3.15-.3.17a22.51,22.51,0,0,1,2.29-.17,14.44,14.44,0,0,1,3.82.49,14.6,14.6,0,0,1,3.23,1.28,10.4,10.4,0,0,1,2.38,1.8,5.36,5.36,0,0,1,1.31,2c.09.28.17.58.24.88a4.94,4.94,0,0,1,.1.95,5.46,5.46,0,0,1-.14,1.2,7.77,7.77,0,0,1-.33,1.09c-.41,1-.77,1.77-1.08,2.44s-.59,1.22-.84,1.67-.44.79-.6,1-.28.42-.37.54a18.31,18.31,0,0,1-2.65,3,22.5,22.5,0,0,1-4.07,3,25.89,25.89,0,0,1-5.2,2.29,19.83,19.83,0,0,1-6.08.91,20.81,20.81,0,0,1-4.13-.38,14.6,14.6,0,0,1-3.29-1.08,10.65,10.65,0,0,1-2.49-1.6,9.23,9.23,0,0,1-1.71-2,7.37,7.37,0,0,1-1-2.4,11.63,11.63,0,0,1-.27-2.45c0-.58,0-1.15.07-1.68S1076.69,643.69,1076.78,643.22Zm7-.42a3.1,3.1,0,0,0,.74,2,6.74,6.74,0,0,0,2,1.65,11.38,11.38,0,0,0,3,1.13,16.68,16.68,0,0,0,3.76.4,16.46,16.46,0,0,0,5.28-.83,13.52,13.52,0,0,0,4-2,3.2,3.2,0,0,0,1.62-2.42,2.31,2.31,0,0,0-.71-1.6,5.85,5.85,0,0,0-2-1.32,13.11,13.11,0,0,0-2.89-.9,17.84,17.84,0,0,0-3.52-.33,22.62,22.62,0,0,0-3.7.3,20.25,20.25,0,0,0-3.35.84,11.08,11.08,0,0,0-2.69,1.34A4.6,4.6,0,0,0,1083.77,642.8Z" transform="translate(-571.46 -165.73)"/><path class="cls-10" d="M1129,607c0-.11.1-.27.3-.47a10,10,0,0,1,.77-.67c.32-.25.63-.5.94-.77s.61-.54.88-.79a10.75,10.75,0,0,1,1.71-1.46,17.72,17.72,0,0,1,1.91-1.18,13.27,13.27,0,0,1,2.69-1,12.51,12.51,0,0,1,3.29-.42,4.49,4.49,0,0,1,2.35.6,1.66,1.66,0,0,1,1,1.37,1.38,1.38,0,0,1-.4.81,1.46,1.46,0,0,1-1.15.45,4,4,0,0,1-1-.12c-.32-.08-.63-.18-.94-.28a9.25,9.25,0,0,0-1-.28,5,5,0,0,0-1.21-.13,6.4,6.4,0,0,0-1.31.16,9.11,9.11,0,0,0-1.34.42,8.64,8.64,0,0,0-1.14.57,3.58,3.58,0,0,0-.78.58,12.1,12.1,0,0,0,1.75.79c.67.24,1.36.46,2.08.65a20.55,20.55,0,0,0,2.15.45,12,12,0,0,0,2,.18,5.45,5.45,0,0,0,1.81-.32c.63-.21,1.25-.41,1.88-.59l1.65-.48c.47-.13.9-.24,1.31-.33a6.21,6.21,0,0,1,1.61-.25.82.82,0,0,1,.34.11c.13.07.2.13.2.17a.79.79,0,0,1-.17.42,1.34,1.34,0,0,1-.5.43,10.42,10.42,0,0,1-1.28.56c-.4.14-.85.32-1.34.53-1.39.56-2.67,1.09-3.83,1.58s-2.29,1-3.36,1.44l-1.75.77-1.88.85q-.95.42-1.74.81c-.54.25-.94.45-1.21.59q-.81.42-1.38.78t-1.11.63a2.72,2.72,0,0,1-1.48.35c-.17,0-.29,0-.33-.16a.66.66,0,0,1-.07-.3.48.48,0,0,1,.14-.26c.09-.1.17-.22.26-.33a9.29,9.29,0,0,1,.78-.79c.33-.32.71-.65,1.14-1s.89-.71,1.41-1.07a15.22,15.22,0,0,1,1.58-1c-.58-.11-1.23-.26-2-.43a19.09,19.09,0,0,1-2-.62,8.7,8.7,0,0,1-1.58-.74C1129.18,607.56,1129,607.29,1129,607Zm4.43,44.26c.09-1,.17-2.23.24-3.53s.12-2.65.16-4.06.08-2.83.1-4.29,0-2.88.07-4.27,0-2.72,0-4v-3.45a4.88,4.88,0,0,1,.5-1.72c.34-.77.75-1.61,1.24-2.53s1-1.83,1.61-2.76,1.15-1.74,1.68-2.44a10.46,10.46,0,0,1,1.55-1.62,2.65,2.65,0,0,1,1.54-.7c.45,0,.67.19.67.56a3.47,3.47,0,0,1-.23,1.13,8.7,8.7,0,0,0-.37,1.4q-.4,2.46-.57,4.89c-.11,1.62-.17,3.23-.17,4.85,0,1.27,0,2.54.14,3.81s.13,2.55.13,3.82a23.69,23.69,0,0,1-1.28,7.73,20.22,20.22,0,0,1-4.63,7.28,1.88,1.88,0,0,1-1.41.77A1,1,0,0,1,1133.4,651.27Z" transform="translate(-571.46 -165.73)"/></svg>